<svg version="1.1" id="Layer_1" xmlns="http://www.w3.org/2000/svg" xmlns:xlink="http://www.w3.org/1999/xlink" x="0px" y="0px"
	 width="100%" viewBox="0 0 96 96" enable-background="new 0 0 96 96" xml:space="preserve">
<path fill="#000000" opacity="1.000000" stroke="none" 
	d="
M56.000000,97.000000 
	C37.333340,97.000000 19.166677,97.000000 1.000012,97.000000 
	C1.000008,65.000015 1.000008,33.000031 1.000004,1.000034 
	C32.999973,1.000022 64.999947,1.000022 96.999939,1.000011 
	C96.999962,32.999966 96.999962,64.999931 96.999985,96.999954 
	C83.500000,97.000000 70.000000,97.000000 56.000000,97.000000 
M48.025654,72.750961 
	C50.367989,70.492020 52.710323,68.233078 55.678532,65.710365 
	C55.854134,65.249763 55.916584,64.689537 56.221710,64.342979 
	C66.426338,52.753078 76.571350,41.108654 86.932686,29.660082 
	C89.768150,26.527082 89.836281,24.103279 86.809647,21.262127 
	C83.781876,18.419912 81.180771,15.042809 77.864166,12.625145 
	C76.376480,11.540687 72.715782,11.223001 71.546089,12.258059 
	C59.470963,22.943241 47.703804,33.976456 35.267109,45.205589 
	C33.138893,47.429600 31.010679,49.653610 28.385494,52.395485 
	C25.857933,58.833187 23.959810,65.606323 18.314688,70.334190 
	C17.797390,70.767426 18.077202,72.152428 17.782484,73.721977 
	C15.904213,75.599319 13.839018,77.333282 12.236708,79.422287 
	C11.565527,80.297333 11.264723,82.438469 11.841659,83.125465 
	C14.992027,86.876877 24.191353,87.145607 28.656809,83.871223 
	C33.201756,81.025841 37.728432,78.150627 42.301308,75.350861 
	C43.958267,74.336388 45.725739,73.502411 48.025654,72.750961 
z"/>
<path fill="#CDDC39" opacity="1.000000" stroke="none" 
	d="
M35.850918,44.912785 
	C47.703804,33.976456 59.470963,22.943241 71.546089,12.258059 
	C72.715782,11.223001 76.376480,11.540687 77.864166,12.625145 
	C81.180771,15.042809 83.781876,18.419912 86.809647,21.262127 
	C89.836281,24.103279 89.768150,26.527082 86.932686,29.660082 
	C76.571350,41.108654 66.426338,52.753078 56.221710,64.342979 
	C55.916584,64.689537 55.854134,65.249763 55.283119,65.513588 
	C48.542114,58.515469 42.196514,51.714127 35.850918,44.912785 
z"/>
<path fill="#38484F" opacity="1.000000" stroke="none" 
	d="
M17.986870,73.095467 
	C18.077202,72.152428 17.797390,70.767426 18.314688,70.334190 
	C23.959810,65.606323 25.857933,58.833187 28.730328,52.474522 
	C30.442738,54.190044 31.740072,55.891891 33.190804,57.451004 
	C37.911266,62.524124 42.687817,67.545059 47.442780,72.586075 
	C45.725739,73.502411 43.958267,74.336388 42.301308,75.350861 
	C37.728432,78.150627 33.201756,81.025841 28.307674,83.521378 
	C24.634649,79.812836 21.310759,76.454155 17.986870,73.095467 
z"/>
<path fill="#699E39" opacity="1.000000" stroke="none" 
	d="
M47.734215,72.668518 
	C42.687817,67.545059 37.911266,62.524124 33.190804,57.451004 
	C31.740072,55.891891 30.442738,54.190044 28.978811,52.215591 
	C31.010679,49.653610 33.138893,47.429600 35.559013,45.059189 
	C42.196514,51.714127 48.542114,58.515469 54.970184,65.645470 
	C52.710323,68.233078 50.367989,70.492020 47.734215,72.668518 
z"/>
<path fill="#CDDC39" opacity="1.000000" stroke="none" 
	d="
M17.884676,73.408722 
	C21.310759,76.454155 24.634649,79.812836 27.958622,83.514870 
	C24.191353,87.145607 14.992027,86.876877 11.841659,83.125465 
	C11.264723,82.438469 11.565527,80.297333 12.236708,79.422287 
	C13.839018,77.333282 15.904213,75.599319 17.884676,73.408722 
z"/>
</svg>